<?xml version="1.0" encoding="UTF-8" standalone="no"?>
<svg
   xmlns:dc="http://purl.org/dc/elements/1.1/"
   xmlns:cc="http://creativecommons.org/ns#"
   xmlns:rdf="http://www.w3.org/1999/02/22-rdf-syntax-ns#"
   xmlns:svg="http://www.w3.org/2000/svg"
   xmlns="http://www.w3.org/2000/svg"
   xmlns:sodipodi="http://sodipodi.sourceforge.net/DTD/sodipodi-0.dtd"
   xmlns:inkscape="http://www.inkscape.org/namespaces/inkscape"
   version="1.1"
   x="0px"
   y="0px"
   width="24px"
   height="24px"
   viewBox="0 0 24 24"
   style="enable-background:new 0 0 24 24;"
   xml:space="preserve"
   id="svg5"
   sodipodi:docname="menu.svg"
   inkscape:version="0.92.1 r15371"><metadata
     id="metadata11"><rdf:RDF><cc:Work
         rdf:about=""><dc:format>image/svg+xml</dc:format><dc:type
           rdf:resource="http://purl.org/dc/dcmitype/StillImage" /><dc:title /></cc:Work></rdf:RDF></metadata><defs
     id="defs9" /><sodipodi:namedview
     pagecolor="#000000"
     bordercolor="#666666"
     borderopacity="1"
     objecttolerance="10"
     gridtolerance="10"
     guidetolerance="10"
     inkscape:pageopacity="0"
     inkscape:pageshadow="2"
     inkscape:window-width="1920"
     inkscape:window-height="984"
     id="namedview7"
     showgrid="true"
     inkscape:zoom="27.812867"
     inkscape:cx="9.6864157"
     inkscape:cy="11.945694"
     inkscape:window-x="-11"
     inkscape:window-y="-11"
     inkscape:window-maximized="1"
     inkscape:current-layer="svg5"
     inkscape:pagecheckerboard="false"
     showguides="false"><inkscape:grid
       type="xygrid"
       id="grid4489" /></sodipodi:namedview><path
     style="fill:#fefefe;fill-opacity:1;stroke:#fefefe;stroke-width:0.92532933;stroke-opacity:1"
     d="m 3,5.3875369 v 0.6841682 c 0,0.378345 0.5594191,0.6841682 1.2514969,0.6841682 H 19.269459 c 0.692077,0 1.251496,-0.3058232 1.251496,-0.6841682 V 5.3875369 c 0,-0.378345 -0.559419,-0.6841682 -1.251496,-0.6841682 H 4.2514969 C 3.5594191,4.7033687 3,5.0091919 3,5.3875369 Z"
     id="menu"
     inkscape:connector-curvature="0" /><g
     id="Guides"
     style="display:none;" /><path
     inkscape:connector-curvature="0"
     id="path4485"
     d="m 3,12 v 0.684169 c 0,0.378345 0.5594191,0.684168 1.2514969,0.684168 H 19.269459 c 0.692077,0 1.251496,-0.305823 1.251496,-0.684168 V 12 c 0,-0.378345 -0.559419,-0.684168 -1.251496,-0.684168 H 4.2514969 C 3.5594191,11.315832 3,11.621655 3,12 Z"
     style="fill:#fefefe;fill-opacity:1;stroke:#fefefe;stroke-width:0.92532933;stroke-opacity:1" /><path
     style="fill:#fefefe;fill-opacity:1;stroke:#fefefe;stroke-width:0.92532933;stroke-opacity:1"
     d="m 3,18.359546 v 0.684169 c 0,0.378345 0.5594191,0.684168 1.2514969,0.684168 H 19.269459 c 0.692077,0 1.251496,-0.305823 1.251496,-0.684168 v -0.684169 c 0,-0.378345 -0.559419,-0.684168 -1.251496,-0.684168 H 4.2514969 C 3.5594191,17.675378 3,17.981201 3,18.359546 Z"
     id="path4487"
     inkscape:connector-curvature="0" /></svg>