<?xml version="1.0" encoding="UTF-8" standalone="no"?>
<!-- Created with Inkscape (http://www.inkscape.org/) -->

<svg
   xmlns:dc="http://purl.org/dc/elements/1.1/"
   xmlns:cc="http://creativecommons.org/ns#"
   xmlns:rdf="http://www.w3.org/1999/02/22-rdf-syntax-ns#"
   xmlns:svg="http://www.w3.org/2000/svg"
   xmlns="http://www.w3.org/2000/svg"
   xmlns:sodipodi="http://sodipodi.sourceforge.net/DTD/sodipodi-0.dtd"
   xmlns:inkscape="http://www.inkscape.org/namespaces/inkscape"
   width="788.23541mm"
   height="118.53337mm"
   viewBox="0 0 788.23541 118.53337"
   version="1.1"
   id="svg4498"
   inkscape:version="0.92.1 r15371"
   sodipodi:docname="donate3.svg">
  <defs
     id="defs4492" />
  <sodipodi:namedview
     id="base"
     pagecolor="#ffffff"
     bordercolor="#666666"
     borderopacity="1.0"
     inkscape:pageopacity="0.0"
     inkscape:pageshadow="2"
     inkscape:zoom="0.35"
     inkscape:cx="1409.5786"
     inkscape:cy="528.07708"
     inkscape:document-units="mm"
     inkscape:current-layer="layer1"
     showgrid="false"
     inkscape:window-width="1920"
     inkscape:window-height="984"
     inkscape:window-x="-11"
     inkscape:window-y="-11"
     inkscape:window-maximized="1" />
  <metadata
     id="metadata4495">
    <rdf:RDF>
      <cc:Work
         rdf:about="">
        <dc:format>image/svg+xml</dc:format>
        <dc:type
           rdf:resource="http://purl.org/dc/dcmitype/StillImage" />
        <dc:title></dc:title>
      </cc:Work>
    </rdf:RDF>
  </metadata>
  <g
     inkscape:label="Layer 1"
     inkscape:groupmode="layer"
     id="layer1"
     transform="translate(485.20992)">
    <path
       id="path5043"
       d="m -201.89028,52.731458 c 0,0 2.01084,9.8425 2.46063,11.90625 h -8.83708 c 0.87312,-2.35479 4.23333,-11.50937 4.23333,-11.50937 -0.0529,0.0794 0.87312,-2.40771 1.40229,-3.94229 z M -173.8709,12.7 v 93.13334 c 0,7.01146 -5.68854,12.7 -12.7,12.7 h -127.00001 c -7.01145,0 -12.7,-5.68854 -12.7,-12.7 V 12.7 c 0,-7.011459 5.68855,-12.7 12.7,-12.7 h 127.00001 c 7.01146,0 12.7,5.688541 12.7,12.7 z m -112.05105,66.463338 16.72167,-41.06333 h -11.24479 l -10.39813,28.04583 -1.13771,-5.68854 -3.70416,-18.89125 c -0.60854,-2.61938 -2.48709,-3.36021 -4.81542,-3.46604 h -17.11854 l -0.18521,0.8202 c 4.18042,1.05834 7.91104,2.59292 11.16542,4.52438 l 9.47208,35.71875 z m 24.97667,0.0529 6.6675,-41.11625 h -10.63625 l -6.64104,41.11625 z m 37.01521,-13.44084 c 0.0529,-4.68312 -2.80458,-8.255 -8.91646,-11.19187 -3.73062,-1.87854 -6.00604,-3.14854 -6.00604,-5.08 0.0529,-1.74625 1.93146,-3.54542 6.11187,-3.54542 3.46605,-0.0794 6.00605,0.74083 7.91105,1.56104 l 0.9525,0.44979 1.45521,-8.89 c -2.09021,-0.8202 -5.42396,-1.74625 -9.52501,-1.74625 -10.50395,0 -17.88583,5.60917 -17.93875,13.59959 -0.0794,5.90021 5.29167,9.18104 9.31334,11.16541 4.10104,2.01084 5.50333,3.33375 5.50333,5.10646 -0.0529,2.75167 -3.33375,4.02167 -6.37646,4.02167 -4.23333,0 -6.50875,-0.66146 -9.97479,-2.19604 l -1.40229,-0.66146 -1.48167,9.23396 c 2.48709,1.13771 7.09084,2.14312 11.85334,2.19604 11.16541,0.0265 18.44146,-5.50333 18.52083,-14.02292 z m 37.35917,13.44084 -8.5725,-41.11625 h -8.22854 c -2.54,0 -4.47146,0.74083 -5.55625,3.41312 l -15.79563,37.70313 h 11.16542 c 0,0 1.82562,-5.08 2.2225,-6.1648 h 13.6525 c 0.3175,1.45521 1.27,6.1648 1.27,6.1648 z"
       inkscape:connector-curvature="0"
       style="fill:currentColor;stroke-width:0.26458332" />
    <path
       id="path5054"
       d="m -39.564619,99.827291 c 0,1.799169 -1.21708,3.095629 -2.96333,3.095629 -1.79917,0 -2.96334,-1.37584 -2.96334,-3.095629 0,-1.71979 1.16417,-3.09562 2.96334,-3.09562 1.74625,0 2.96333,1.37583 2.96333,3.09562 z m -82.232501,-3.09562 c -1.87854,0 -2.96334,1.37583 -2.96334,3.09562 0,1.719789 1.0848,3.095629 2.96334,3.095629 1.71979,0 2.88396,-1.29646 2.88396,-3.095629 -0.0265,-1.71979 -1.16417,-3.09562 -2.88396,-3.09562 z m 31.088544,-0.0794 c -1.42875,0 -2.301875,0.92604 -2.513541,2.30188 h 5.053541 c -0.238125,-1.50813 -1.164166,-2.30188 -2.54,-2.30188 z m 28.522087,0.0794 c -1.79917,0 -2.88396,1.37583 -2.88396,3.09562 0,1.719789 1.08479,3.095629 2.88396,3.095629 1.79916,0 2.96333,-1.29646 2.96333,-3.095629 0,-1.71979 -1.16417,-3.09562 -2.96333,-3.09562 z m 28.01937,6.905619 c 0,0.0794 0.0794,0.13229 0.0794,0.29104 0,0.0794 -0.0794,0.13229 -0.0794,0.29105 -0.0794,0.0794 -0.0794,0.13229 -0.13229,0.21166 -0.0794,0.0794 -0.13229,0.13229 -0.29104,0.13229 -0.0794,0.0794 -0.13229,0.0794 -0.29104,0.0794 -0.0794,0 -0.1323,0 -0.29105,-0.0794 -0.0794,0 -0.13229,-0.0794 -0.21166,-0.13229 -0.0794,-0.0794 -0.13229,-0.13229 -0.13229,-0.21166 -0.0794,-0.1323 -0.0794,-0.21167 -0.0794,-0.29105 0,-0.13229 0,-0.21166 0.0794,-0.29104 0,-0.13229 0.0794,-0.21167 0.13229,-0.29104 0.0794,-0.0794 0.13229,-0.0794 0.21166,-0.13229 0.1323,-0.0794 0.21167,-0.0794 0.29105,-0.0794 0.13229,0 0.21166,0 0.29104,0.0794 0.13229,0.0794 0.21166,0.0794 0.29104,0.13229 0.0794,0.0529 0.0529,0.15875 0.13229,0.29104 z m -0.58208,0.37042 c 0.13229,0 0.13229,-0.0794 0.21166,-0.0794 0.0794,-0.0794 0.0794,-0.13229 0.0794,-0.21166 0,-0.0794 0,-0.1323 -0.0794,-0.21167 -0.0794,0 -0.13229,-0.0794 -0.29104,-0.0794 h -0.42333 v 0.92605 h 0.21167 v -0.37042 h 0.0794 l 0.29104,0.37042 h 0.21167 z M -14.931909,12.7 v 93.13333 c 0,7.01146 -5.68854,12.7 -12.7,12.7 H -154.63191 c -7.01146,0 -12.7,-5.68854 -12.7,-12.7 V 12.7 c 0,-7.01146 5.68854,-12.7 12.7,-12.7 h 127.000001 c 7.01146,0 12.7,5.68854 12.7,12.7 z M -150.39858,49.63583 c 0,20.24062 16.43062,36.64479 36.64479,36.64479 7.19667,0 14.261048,-2.16958 20.240631,-6.11187 -19.288131,-15.6898 -19.155841,-45.29667 0,-60.98646 -5.979583,-3.96875 -13.043961,-6.11188 -20.240631,-6.11188 -20.21417,-0.0265 -36.64479,16.40417 -36.64479,36.56542 z m 59.266671,28.78667 c 18.653125,-14.55209 18.57375,-42.91542 0,-57.54688 -18.573761,14.63146 -18.653131,43.02125 0,57.54688 z m -37.650211,20.187711 c 0,-2.30188 -1.50813,-3.81 -3.88938,-3.88938 -1.21708,0 -2.51354,0.37042 -3.38666,1.71979 -0.635,-1.08479 -1.7198,-1.71979 -3.22792,-1.71979 -1.00542,0 -2.01083,0.37042 -2.80458,1.42875 v -1.16416 h -2.16959 v 9.710199 h 2.16959 c 0,-5.000619 -0.66146,-7.990409 2.38125,-7.990409 2.69875,0 2.16958,2.69875 2.16958,7.990409 h 2.09021 c 0,-4.841869 -0.66146,-7.990409 2.38125,-7.990409 2.69875,0 2.16958,2.64583 2.16958,7.990409 h 2.16958 v -6.085409 z m 11.87979,-3.62479 h -2.09021 v 1.16416 c -0.71437,-0.87312 -1.71979,-1.42875 -3.09562,-1.42875 -2.72521,0 -4.81542,2.16959 -4.81542,5.10646 0,2.963329 2.09021,5.106459 4.81542,5.106459 1.37583,0 2.38125,-0.50271 3.09562,-1.42875 v 1.21708 h 2.09021 z m 10.71562,6.773329 c 0,-3.968749 -6.05895,-2.169579 -6.05895,-4.021669 0,-1.50812 3.14854,-1.27 4.89479,-0.29104 l 0.87312,-1.71979 c -2.48708,-1.61396 -7.99041,-1.5875 -7.99041,2.16958 0,3.783539 6.05895,2.196039 6.05895,3.968749 0,1.66688 -3.57187,1.53459 -5.47687,0.21167 l -0.92604,1.66687 c 2.96333,2.01084 8.62541,1.5875 8.62541,-1.98437 z m 9.366259,2.46062 -0.582083,-1.79916 c -1.005417,0.55562 -3.227926,1.16416 -3.227926,-1.08479 v -4.392089 h 3.466051 v -1.95791 h -3.466051 v -2.96334 h -2.16958 v 2.96334 h -2.01083 v 1.93145 h 2.01083 v 4.418549 c 0,4.65666 4.577298,3.81 5.979589,2.88395 z m 3.518959,-3.54541 h 7.276041 c 0,-4.286249 -1.957916,-5.979589 -4.60375,-5.979589 -2.804583,0 -4.815416,2.09021 -4.815416,5.10646 0,5.423959 5.979583,6.323539 8.942916,3.757089 l -1.005416,-1.5875 c -2.06375,1.69333 -5.185834,1.53458 -5.794375,-1.29646 z m 15.636875,-5.688539 c -1.217084,-0.52917 -3.069167,-0.47625 -4.021667,1.16416 v -1.16416 h -2.169583 v 9.710199 h 2.169583 v -5.476869 c 0,-3.06917 2.513542,-2.67229 3.386667,-2.2225 z m 2.804583,4.84187 c 0,-3.01625 3.069167,-3.99521 5.476875,-2.2225 l 1.005417,-1.71979 c -3.069167,-2.40771 -8.651875,-1.08479 -8.651875,3.96875 0,5.238749 5.926666,6.297079 8.651875,3.968749 l -1.005417,-1.71979 c -2.434167,1.71979 -5.476875,0.68791 -5.476875,-2.275419 z m 17.647705,-4.84187 h -2.16958 v 1.16416 c -2.19604,-2.91041 -7.91104,-1.27 -7.91104,3.67771 0,5.079999 5.92666,6.535209 7.91104,3.677709 v 1.21708 h 2.16958 z m 8.91646,0 c -0.635,-0.3175 -2.91042,-0.7673 -4.02167,1.16416 v -1.16416 h -2.0902 v 9.710199 h 2.0902 v -5.476869 c 0,-2.91042 2.38125,-2.72521 3.38667,-2.2225 z m 10.66271,-3.9423 h -2.09021 v 5.10646 c -2.16958,-2.88396 -7.91104,-1.34937 -7.91104,3.67771 0,5.132919 5.95312,6.508749 7.91104,3.677709 v 1.21708 h 2.09021 z m 2.01083,-19.870211 V 72.39 h 0.21167 v -1.21709 h 0.50271 v -0.21166 h -1.21709 v 0.21166 z m 1.74625,32.75542 c 0,-0.13229 0,-0.29104 -0.0794,-0.42333 -0.0794,-0.0794 -0.13229,-0.21167 -0.21167,-0.29104 -0.0794,-0.0794 -0.21167,-0.13229 -0.29104,-0.21167 -0.13229,0 -0.29104,-0.0794 -0.42333,-0.0794 -0.0794,0 -0.21167,0.0794 -0.37042,0.0794 -0.13229,0.0794 -0.21167,0.13229 -0.29104,0.21167 -0.13229,0.0794 -0.21167,0.21166 -0.21167,0.29104 -0.0794,0.13229 -0.0794,0.29104 -0.0794,0.42333 0,0.0794 0,0.21167 0.0794,0.37042 0,0.0794 0.0794,0.21167 0.21167,0.29104 0.0794,0.0794 0.13229,0.13229 0.29104,0.21167 0.13229,0.0794 0.29104,0.0794 0.37042,0.0794 0.13229,0 0.29104,0 0.42333,-0.0794 0.0794,-0.0794 0.21167,-0.13229 0.29104,-0.21167 0.0794,-0.0794 0.13229,-0.21167 0.21167,-0.29104 0.0794,-0.15875 0.0794,-0.29104 0.0794,-0.37042 z m 0.84667,-32.99354 h -0.37042 l -0.42333,0.92604 -0.42333,-0.92604 h -0.37042 v 1.42875 h 0.21167 v -1.08479 l 0.42333,0.92604 h 0.29104 l 0.37042,-0.92604 v 1.08479 h 0.29104 z m 1.16417,-21.29896 c 0,-20.16125 -16.43063,-36.59188 -36.644795,-36.59188 -7.196667,0 -14.261042,2.16959 -20.240625,6.11188 19.076458,15.68979 19.3675,45.37604 0,60.98646 5.979583,3.96875 13.096875,6.11187 20.240625,6.11187 20.214165,0.0265 36.644795,-16.37771 36.644795,-36.61833 z"
       inkscape:connector-curvature="0"
       style="fill:currentColor;stroke-width:0.26458332" />
    <path
       id="path5065"
       d="m 129.29624,43.41812 c 0,-2.09021 -1.45521,-3.20146 -4.1275,-3.20146 h -1.29646 v 6.58813 h 1.24354 c 2.72521,0 4.18042,-1.16417 4.18042,-3.38667 z M 131.30707,0 H 4.3070813 c -7.01146,0 -12.7,5.68854 -12.7,12.7 v 93.13334 c 0,7.01146 5.68854,12.7 12.7,12.7 H 131.30707 c 7.01146,0 12.7,-5.68854 12.7,-12.7 V 12.7 c 0,-7.01146 -5.68854,-12.7 -12.7,-12.7 z m -11.66813,36.75062 c 5.97959,0 13.99646,-1.08479 13.99646,6.45584 0,3.33375 -1.74625,5.47687 -4.94771,6.13833 l 6.82625,9.10167 h -5.18583 l -5.87375,-8.67834 h -0.58208 v 8.67834 h -4.23334 z m -14.7902,0.0265 h 11.98562 v 3.70417 h -7.75229 v 4.81542 h 7.48771 v 3.65125 h -7.48771 v 5.87375 h 7.75229 v 3.65125 h -11.98562 z m -18.17687,0 5.794378,14.605 5.87375,-14.605 h 4.630192 l -9.392692,22.27792 h -2.27542 L 82.041661,36.77712 Z M 71.881661,35.98337 c 6.535209,0 11.800417,5.29167 11.800417,11.80042 0,6.53521 -5.291667,11.80041 -11.800417,11.80041 -6.535209,0 -11.800419,-5.29166 -11.800419,-11.80041 0,-6.53521 5.29167,-11.80042 11.800419,-11.80042 z m -13.043959,1.61396 v 5.02708 c -5.31812,-5.31812 -12.3825,-1.24354 -12.3825,5.02709 0,6.61458 7.27604,10.18645 12.3825,5.08 v 5.02708 c -7.85812,3.78354 -16.74812,-1.50813 -16.74812,-10.10708 0,-8.255 8.7577,-14.02292 16.74812,-10.05417 z m -25.7175,17.54187 c 3.01625,0 5.92667,-4.04812 -0.87312,-6.45583 -3.96875,-1.45521 -5.34459,-3.01625 -5.34459,-6.00604 0,-6.13833 8.09625,-8.30792 13.14979,-3.78354 l -2.2225,2.8575 c -2.75166,-3.06917 -6.58812,-1.64042 -6.58812,0.66146 0,1.16416 0.71437,1.82562 3.25437,2.7252 4.81542,1.74625 6.24417,3.3073 6.24417,6.77334 0,7.80521 -10.26583,9.89541 -14.97542,2.98979 l 2.72521,-2.61938 c 0.97896,1.87855 2.61938,2.8575 4.63021,2.8575 z M 6.2649913,58.47295 H 0.07374122 V 36.77712 H 6.2649913 c 6.9056307,0 11.6681307,4.49792 11.6681307,10.87438 0,4.89479 -3.4925,10.82145 -11.6681307,10.82145 z m 17.8593807,0 h -4.23334 V 36.77712 h 4.23334 z M 135.5404,106.09796 c 0,2.16959 -1.79916,3.96875 -3.96875,3.96875 H 25.473742 C 75.638745,100.64755 126.72978,73.2367 135.5404,67.73337 Z M 11.212702,42.2275 C 9.8368713,40.93104 8.1435313,40.48125 5.4183313,40.48125 h -1.11125 v 14.34041 h 1.11125 c 2.7252,0 4.49791,-0.52916 5.7943707,-1.69333 1.50813,-1.37583 2.35479,-3.38667 2.35479,-5.47687 0,-2.09021 -0.84666,-4.10105 -2.35479,-5.42396 z"
       inkscape:connector-curvature="0"
       style="fill:currentColor;stroke-width:0.26458332" />
    <path
       id="path5076"
       d="m 236.61506,35.93045 c 0,-4.33916 -3.73062,-4.86833 -7.24958,-4.86833 l -10.34521,-0.0794 v 18.33565 h 4.33917 v -6.64104 h 4.7625 c 4.86833,0 3.83646,2.72521 3.91583,6.64104 h 4.39209 v -3.57188 c 0,-2.43416 -0.39688,-3.9952 -2.91042,-4.86833 1.95792,-0.79375 3.12208,-2.83104 3.09562,-4.94771 z m -7.77875,2.98979 h -5.47687 v -4.04812 h 5.55625 c 1.34937,0 2.83104,0.26458 2.83104,1.95792 0,1.74625 -1.40229,2.0902 -2.91042,2.0902 z m -4.41854,23.68021 h -13.94354 l -5.55625,6.0325 -5.42396,-6.0325 h -17.59479 l -0.0265,18.33563 h 17.30375 l 5.63563,-6.08542 5.3975,6.08542 h 8.51958 l 0.0265,-6.16479 c 5.00063,0 13.04396,1.21708 13.04396,-6.1648 0,-4.57729 -3.25438,-6.00604 -7.38188,-6.00604 z m -27.46375,14.47271 h -10.74208 v -3.65125 h 9.60437 v -3.73062 h -9.60437 v -3.3073 h 11.03312 l 4.73604,5.34459 z m 17.40959,2.16958 -6.69396,-7.43479 6.69396,-7.24958 z m 10.00125,-8.20208 h -5.60917 v -4.65667 h 5.68854 c 1.48167,0 2.69875,0.60855 2.69875,2.2225 0,1.69334 -1.21708,2.43417 -2.77812,2.43417 z M 216.00402,34.87212 V 31.0092 h -14.68437 v 18.33563 h 14.68437 v -3.78354 h -10.29229 v -3.65125 h 10.00125 v -3.73063 h -10.00125 v -3.30729 z m 86.995,24.23583 h -0.0529 z m -51.48792,8.44021 c 0,-4.33917 -3.73062,-4.94771 -7.1702,-4.94771 h -10.42459 l -0.0265,18.33563 h 4.39209 l 0.0265,-6.69396 h 4.65667 c 2.91041,0 3.91583,0.52917 3.91583,3.65125 l -0.0265,3.04271 h 4.39208 l 0.0265,-3.65125 c 0,-2.35479 -0.47625,-3.99521 -2.91042,-4.86834 2.03729,-0.8202 3.12209,-2.8575 3.14854,-4.86833 z m -7.72583,2.96333 h -5.47687 v -4.1275 h 5.55625 c 1.34937,0 2.83104,0.26459 2.83104,1.95792 0,1.82563 -1.42875,2.16958 -2.91042,2.16958 z m -45.72,-21.16666 V 31.0092 h -7.3025 l -5.21229,12.43542 -5.74146,-12.43542 h -7.17021 V 48.39233 L 165.20402,31.0092 h -6.48229 l -7.85813,18.33563 h 4.73605 l 1.69333,-4.04813 h 9.12812 l 1.69334,4.04813 h 8.94291 V 35.00441 l 6.35,14.34042 h 3.86292 l 6.35,-14.34042 v 14.34042 z m -39.21125,-7.85813 2.96333,-7.3025 3.04271,7.3025 z M 285.1661,83.52899 v -1.19062 c -2.8575,1.48167 -1.03187,1.19062 -41.4602,1.19062 0,-6.6675 0.0265,-6.32354 0,-6.6675 -0.44979,-0.0265 -0.84667,-0.0265 -2.48709,-0.0265 0,4.73605 -0.0265,1.79917 -0.0265,6.69396 h -10.4775 c 0,-3.20146 0.0265,-4.04812 0.0265,-7.72583 -2.64583,1.5875 -6.0325,1.69333 -9.0752,1.64042 0,3.88937 -0.0265,2.19604 -0.0265,6.08541 h -12.93813 c -1.34937,-1.50812 -0.71437,-0.82021 -4.07458,-4.60375 -0.84667,0.92604 -3.38667,3.67771 -4.25979,4.60375 H 178.67127 V 59.10791 h 21.98688 c 1.32291,1.48167 0.74083,0.82021 4.10104,4.55084 0.84667,-0.92605 3.22792,-3.54542 4.15396,-4.55084 h 15.34583 c 2.59292,0 4.7625,0.50271 6.42938,1.48167 v -1.48167 c 14.36687,0 17.01271,-0.37041 20.02895,1.34938 v -1.34938 h 20.69042 v 1.37584 c 3.01625,-1.82563 5.18583,-1.37584 17.17146,-1.37584 v 1.32292 c 2.72521,-1.56104 4.39208,-1.37583 14.36687,-1.32292 V 12.7 c 0,-7.01146 -5.68854,-12.7 -12.7,-12.7 h -127 c -7.01145,0 -12.7,5.68854 -12.7,12.7 v 29.05125 c 2.48709,-5.79438 5.2123,-12.17084 6.11188,-14.26105 h 10.50396 c 1.13771,2.6723 0.42333,0.97896 2.38125,5.58271 V 27.4902 h 12.17083 c 0.76729,1.64042 2.93688,6.35 3.67771,7.9375 1.53458,-3.59833 2.67229,-6.32354 3.33375,-7.9375 h 27.25208 c 0,-0.0265 3.04271,0 3.06917,0 11.56229,0.0529 14.18167,-0.21166 17.03917,1.4023 v -1.4023 h 10.55687 v 2.46063 c 2.01084,-1.61396 4.73604,-2.46063 8.12271,-2.46063 h 7.3025 c 0,0.1323 0.50271,0.0794 0.60854,0.0794 h 8.5725 c 1.11125,2.59292 0.68792,1.5875 2.32833,5.45042 V 27.5696 h 11.45646 c 1.29646,2.11667 -0.26458,-0.47625 2.96333,4.86833 V 27.5696 h 10.55688 v 24.34167 h -11.00667 c -1.42875,-2.38125 -0.37041,-0.58209 -3.4925,-5.79438 v 5.79438 h -13.97 c -1.69333,-3.91584 -0.0265,-0.0794 -1.74625,-4.04813 h -5.02708 c -1.11125,2.64583 -0.58208,1.37583 -1.69333,4.04813 h -7.09084 c -3.25437,0 -5.9002,-0.79375 -7.85812,-2.3548 v 2.3548 H 229.0744 c -0.0794,-3.67771 -0.0265,-6.56167 -0.0265,-6.56167 -0.47625,-0.0794 -0.89958,-0.0529 -2.59292,-0.0529 v 6.64104 h -35.85104 v -3.01625 c -0.66146,1.48167 -0.71437,1.56104 -1.34937,3.01625 h -7.80521 c -1.05834,-2.35479 -0.76729,-1.69333 -1.34938,-3.01625 v 3.01625 h -13.99646 c -1.11125,-2.67229 -0.58208,-1.40229 -1.69333,-4.04812 h -5.08 c -1.11125,2.64583 -0.58208,1.37583 -1.69333,4.04812 h -7.03792 v 53.89563 c 0,7.01146 5.68854,12.7 12.7,12.7 h 127.02654 c 7.01146,0 12.7,-5.68854 12.7,-12.7 V 81.91504 c -3.36021,2.19604 -8.65188,1.61395 -17.85938,1.61395 z m 9.60438,-17.06562 h 7.96396 v -3.86292 h -8.7048 c -3.38666,0 -6.29708,1.74625 -6.29708,5.47688 0,8.73125 11.29771,3.38666 11.29771,7.24958 0,1.34938 -1.13771,1.69333 -2.2225,1.69333 h -8.46667 l -0.0264,3.91584 h 8.46666 c 2.2225,0 4.65667,-0.47625 5.95313,-2.35479 v -6.82625 c -2.77813,-3.65125 -10.39813,-0.34396 -10.39813,-3.57188 0,-1.53458 1.21709,-1.71979 2.43417,-1.71979 z m -15.08125,10.53042 h -8.51959 l -0.0265,3.91583 h 8.51958 c 3.91583,0 6.93208,-1.48167 6.93208,-5.82083 0,-8.78417 -11.35062,-2.96334 -11.35062,-6.95855 0,-1.48166 1.29646,-1.69333 2.43416,-1.69333 h 8.04334 v -3.86292 h -8.78417 c -3.38667,0 -6.21771,1.74625 -6.21771,5.47688 0,8.73125 11.29771,3.30729 11.29771,7.24958 -0.0265,1.42875 -1.24354,1.69334 -2.32833,1.69334 z m -11.16542,-10.6098 v -3.78354 h -14.605 l -0.0265,18.33563 h 14.605 l 0.0265,-3.78354 -10.21292,-0.0794 v -3.65125 h 10.02771 v -3.73063 h -10.00125 v -3.3073 z M 253.62777,37.78254 c -0.0794,0.0529 -0.37042,0.58208 -0.37042,2.01083 0,1.5875 0.23813,2.03729 0.29104,2.09021 0.0529,0.0265 0.29105,0.13229 0.89959,0.13229 l 1.93146,-4.47146 c -0.29105,0 -0.55563,-0.0265 -0.82021,-0.0265 -1.48167,0 -1.85209,0.18521 -1.93146,0.26459 z m 5.3975,-2.77813 h -0.0265 z m -4.28625,-4.02167 c -6.21771,0 -8.99583,3.175 -8.99583,9.3398 0,5.87375 2.69875,8.99583 8.73125,8.99583 h 5.08 l 1.69333,-4.04813 h 9.07521 l 1.74625,4.04813 h 8.91646 V 35.58649 l 8.255,13.73188 h 6.24416 V 31.06212 h -4.47146 v 12.72646 l -7.69937,-12.72646 h -6.69396 v 17.30375 l -7.38187,-17.30375 h -6.56167 l -6.21771,14.41979 h -1.95792 c -3.51895,0 -4.25978,-2.14312 -4.25978,-5.26521 0,-6.29708 4.15395,-5.29166 8.7577,-5.21229 v -4.02167 z m 11.13896,3.20146 2.96333,7.3025 h -6.0325 z m -26.74937,-3.175 v 18.33563 h 4.47145 V 31.0092 Z"
       inkscape:connector-curvature="0"
       style="fill:currentColor;stroke-width:0.26458332" />
    <path
       id="path5087"
       d="m -435.91805,59.84875 c 0,3.22791 -2.56645,5.68854 -5.82083,5.68854 -2.43417,0 -4.23333,-1.37584 -4.23333,-3.96875 0,-3.22792 2.51354,-5.82084 5.74146,-5.82084 2.46062,0 4.3127,1.50813 4.3127,4.10105 z m -27.99291,-12.8323 h -1.24354 c -0.39688,0 -0.79375,0.26459 -0.84667,0.71438 l -1.13771,7.06437 2.16958,-0.0794 c 2.91042,0 5.15938,-0.39687 5.68855,-3.75708 0.60854,-3.54541 -1.64042,-3.94229 -4.63021,-3.94229 z m 75.14166,0 h -1.19062 c -0.47625,0 -0.79375,0.26459 -0.84667,0.71438 l -1.11125,7.06437 2.11667,-0.0794 c 3.43958,0 5.82083,-0.79375 5.82083,-4.7625 -0.0265,-2.80458 -2.54,-2.93687 -4.78896,-2.93687 z M -332.80992,12.7 v 93.13333 c 0,7.01146 -5.68854,12.7 -12.7,12.7 h -127 c -7.01146,0 -12.7,-5.68854 -12.7,-12.7 V 12.7 c 0,-7.01146 5.68854,-12.7 12.7,-12.7 h 127 c 7.01146,0 12.7,5.68854 12.7,12.7 z m -118.45396,35.82458 c 0,-5.55625 -4.28625,-7.40833 -9.18104,-7.40833 h -10.58333 c -0.66146,0 -1.32292,0.52916 -1.37584,1.24354 l -4.33917,27.01396 c -0.0794,0.52916 0.3175,1.05833 0.84667,1.05833 h 5.02709 c 0.71437,0 1.37583,-0.76729 1.4552,-1.50813 l 1.19063,-7.03791 c 0.26458,-1.905 3.4925,-1.24354 4.7625,-1.24354 7.56708,0 12.19729,-4.49792 12.19729,-12.11792 z m 22.27792,2.32833 h -5.02709 c -1.00541,0 -1.05833,1.45521 -1.11125,2.16959 -1.53458,-2.24896 -3.75708,-2.64584 -6.27062,-2.64584 -6.48229,0 -11.43,5.68854 -11.43,11.95917 0,5.15937 3.22792,8.51958 8.38729,8.51958 2.38125,0 5.34458,-1.29646 7.01146,-3.14854 -0.13229,0.39688 -0.26458,1.24354 -0.26458,1.64042 0,0.60854 0.26458,1.05833 0.84666,1.05833 h 4.55084 c 0.71437,0 1.32291,-0.76729 1.4552,-1.50812 l 2.69875,-17.01271 c 0.0794,-0.50271 -0.3175,-1.03188 -0.84666,-1.03188 z m 10.71562,25.90271 16.85396,-24.50042 c 0.13229,-0.13229 0.13229,-0.26458 0.13229,-0.44979 0,-0.44979 -0.39688,-0.92604 -0.84667,-0.92604 h -5.08 c -0.44979,0 -0.92604,0.26458 -1.19062,0.66146 l -7.01146,10.31875 -2.91042,-9.92188 c -0.21166,-0.58208 -0.79375,-1.05833 -1.45521,-1.05833 h -4.9477 c -0.44979,0 -0.84667,0.47625 -0.84667,0.92604 0,0.3175 5.15937,15.02834 5.60917,16.43063 -0.71438,1.00541 -5.42396,7.56708 -5.42396,8.36083 0,0.47625 0.39687,0.84667 0.84667,0.84667 h 5.07999 c 0.47625,-0.0265 0.92605,-0.29104 1.19063,-0.68792 z m 42.14813,-28.23104 c 0,-5.55625 -4.28625,-7.40833 -9.18105,-7.40833 h -10.50396 c -0.71437,0 -1.37583,0.52916 -1.4552,1.24354 l -4.28625,26.9875 c -0.0529,0.52916 0.34395,1.05833 0.84666,1.05833 h 5.42396 c 0.52917,0 0.92604,-0.39687 1.05833,-0.84667 l 1.19063,-7.67291 c 0.26458,-1.905 3.4925,-1.24354 4.7625,-1.24354 7.51417,0 12.14438,-4.49792 12.14438,-12.11792 z m 22.27791,2.32833 h -5.02708 c -1.00542,0 -1.05833,1.45521 -1.13771,2.16959 -1.45521,-2.24896 -3.70416,-2.64584 -6.27062,-2.64584 -6.48229,0 -11.43,5.68854 -11.43,11.95917 0,5.15937 3.22791,8.51958 8.38729,8.51958 2.46062,0 5.42396,-1.29646 7.01146,-3.14854 -0.0794,0.39688 -0.26459,1.24354 -0.26459,1.64042 0,0.60854 0.26459,1.05833 0.84667,1.05833 h 4.57729 c 0.71438,0 1.32292,-0.76729 1.45521,-1.50812 l 2.69875,-17.01271 c 0.0794,-0.50271 -0.3175,-1.03188 -0.84667,-1.03188 z m 12.56771,-8.81062 c 0,-0.52917 -0.39687,-0.92604 -0.84666,-0.92604 h -4.8948 c -0.39687,0 -0.79375,0.3175 -0.84666,0.71437 l -4.28625,27.51667 -0.0794,0.13229 c 0,0.47625 0.39688,0.92604 0.92604,0.92604 h 4.36563 c 0.66146,0 1.32292,-0.76729 1.37583,-1.50812 l 4.28625,-26.77584 z m -23.8125,13.70541 c -3.22791,0 -5.74146,2.56646 -5.74146,5.82084 0,2.56646 1.85209,3.96875 4.28625,3.96875 3.175,0 5.74146,-2.43417 5.74146,-5.68854 0.0265,-2.59292 -1.82562,-4.10105 -4.28625,-4.10105 z"
       inkscape:connector-curvature="0"
       style="fill:currentColor;stroke-width:0.26458332" />
    <flowRoot
       xml:space="preserve"
       id="flowRoot5102"
       style="font-style:normal;font-weight:normal;font-size:40px;line-height:1.25;font-family:sans-serif;letter-spacing:0px;word-spacing:0px;fill:#000000;fill-opacity:1;stroke:none"
       transform="matrix(0.26458333,0,0,0.26458333,-485.20992,0)"><flowRegion
         id="flowRegion5104"><rect
           id="rect5106"
           width="471.42856"
           height="377.14285"
           x="-77.14286"
           y="-514.85699" /></flowRegion><flowPara
         id="flowPara5108"></flowPara></flowRoot>  </g>
</svg>
